# Blender v2.79 (sub 0) OBJ File: ''
# www.blender.org
g node1_Body
v 0.031250 -0.250000 -0.500000
v 0.055813 -0.437500 -0.250000
v 0.064000 -0.500000 -0.500000
v 0.039437 -0.312500 -0.187500
v 0.039437 -0.312500 0.187500
v 0.031250 -0.250000 0.468750
v 0.055813 -0.437500 0.250000
v 0.064000 -0.500000 0.468750
v -0.064000 -0.500000 0.468750
v -0.031250 -0.250000 0.468750
v -0.064000 -0.500000 -0.500000
v -0.031250 -0.250000 -0.500000
v -0.039437 -0.312500 0.187500
v -0.055813 -0.437500 0.250000
v -0.055813 -0.437500 -0.250000
v -0.039437 -0.312500 -0.187500
vt 1.000000 0.250000
vt 0.741935 0.062500
vt 1.000000 0.000000
vt 0.677419 0.187500
vt 0.290323 0.187500
vt 0.000000 0.250000
vt 0.225806 0.062500
vt 0.000000 0.000000
vt 0.549935 0.000000
vt 0.516129 0.250000
vt 0.417806 0.000000
vt 0.451613 0.250000
vt 0.549935 1.000000
vt 0.417806 0.031250
vt 0.417806 1.000000
vt 0.549935 0.031250
vt 0.516129 0.250000
vt 0.549935 0.000000
vt 0.417806 0.000000
vt 0.451613 0.250000
vt 0.451613 1.000000
vt 0.451613 0.031250
vt 0.516129 1.000000
vt 0.516129 0.031250
vt 0.443161 0.187500
vt 0.541484 0.062500
vt 0.426258 0.062500
vt 0.524581 0.187500
vt 0.426258 0.250000
vt 0.541484 0.750000
vt 0.426258 0.750000
vt 0.541484 0.250000
vt 0.443161 0.687500
vt 0.524581 0.312500
vt 0.443161 0.312500
vt 0.524581 0.687500
vt 0.426258 0.062500
vt 0.524581 0.187500
vt 0.443161 0.187500
vt 0.541484 0.062500
vt 1.000000 0.000000
vt 0.741935 0.062500
vt 1.000000 0.250000
vt 0.677419 0.187500
vt 0.225806 0.062500
vt 0.000000 0.250000
vt 0.290323 0.187500
vt 0.000000 0.000000
vn 0.9915 0.1299 0.0000
vn 0.0000 0.0000 1.0000
vn 0.0000 -1.0000 0.0000
vn 0.0000 0.0000 -1.0000
vn 0.0000 1.0000 0.0000
vn 0.0000 -0.4472 -0.8944
vn 0.0000 -0.4472 0.8944
vn -0.9915 0.1299 0.0000
s off
f 1/1/1 2/2/1 3/3/1
f 4/4/1 2/2/1 1/1/1
f 5/5/1 6/6/1 7/7/1
f 6/6/1 8/8/1 7/7/1
f 8/8/1 3/3/1 2/2/1
f 8/8/1 2/2/1 7/7/1
f 1/1/1 6/6/1 5/5/1
f 1/1/1 5/5/1 4/4/1
f 8/9/2 6/10/2 9/11/2
f 6/10/2 10/12/2 9/11/2
f 3/13/3 9/14/3 11/15/3
f 8/16/3 9/14/3 3/13/3
f 1/17/4 3/18/4 11/19/4
f 1/17/4 11/19/4 12/20/4
f 12/21/5 10/22/5 1/23/5
f 10/22/5 6/24/5 1/23/5
f 13/25/6 7/26/6 14/27/6
f 5/28/6 7/26/6 13/25/6
f 14/29/5 2/30/5 15/31/5
f 7/32/5 2/30/5 14/29/5
f 16/33/3 5/34/3 13/35/3
f 4/36/3 5/34/3 16/33/3
f 15/37/7 4/38/7 16/39/7
f 2/40/7 4/38/7 15/37/7
f 11/41/8 15/42/8 12/43/8
f 15/42/8 16/44/8 12/43/8
f 14/45/8 10/46/8 13/47/8
f 9/48/8 10/46/8 14/45/8
f 10/46/8 12/43/8 13/47/8
f 13/47/8 12/43/8 16/44/8
f 11/41/8 9/48/8 15/42/8
f 15/42/8 9/48/8 14/45/8
g node0_Body001
v 0.062500 -0.500000 0.500000
v -0.062500 -0.500000 0.500000
v 0.062500 -0.500000 0.468750
v -0.062500 -0.500000 0.468750
v -0.031250 -0.250000 0.500000
v -0.031250 -0.250000 0.468750
v 0.031250 -0.250000 0.500000
v 0.031250 -0.250000 0.468750
v 0.031250 -0.250000 0.468750
v 0.062500 -0.500000 0.468750
v -0.062500 -0.500000 0.468750
v -0.031250 -0.250000 0.468750
vn 0.0000 -1.0000 0.0000
vn -0.9923 0.1240 0.0000
vn 0.0000 1.0000 0.0000
vn 0.9923 0.1240 0.0000
vn 0.0000 0.0000 1.0000
vn 0.0000 0.0000 -1.0000
s off
f 17//9 18//9 19//9
f 19//9 18//9 20//9
f 18//10 21//10 20//10
f 20//10 21//10 22//10
f 21//11 23//11 22//11
f 22//11 23//11 24//11
f 23//12 17//12 24//12
f 24//12 17//12 19//12
f 17//13 23//13 18//13
f 18//13 23//13 21//13
f 25//14 26//14 27//14
f 25//14 27//14 28//14
