# Blender v2.79 (sub 0) OBJ File: ''
# www.blender.org
mtllib ldm32_spirit_level.mtl
g node1_Body
v 0.500000 -0.250000 0.031250
v 0.250000 -0.437500 0.055813
v 0.500000 -0.500000 0.064000
v 0.187500 -0.312500 0.039437
v -0.187500 -0.312500 0.039437
v -0.468750 -0.250000 0.031250
v -0.250000 -0.437500 0.055813
v -0.468750 -0.500000 0.064000
v -0.468750 -0.250000 -0.031250
v -0.468750 -0.500000 -0.064000
v 0.500000 -0.500000 -0.064000
v 0.500000 -0.250000 -0.031250
v 0.500000 -0.500000 0.064000
v 0.500000 -0.500000 -0.064000
v 0.500000 -0.250000 0.031250
v 0.500000 -0.250000 -0.031250
v -0.187500 -0.312500 -0.039437
v -0.250000 -0.437500 0.055813
v -0.250000 -0.437500 -0.055813
v -0.187500 -0.312500 0.039437
v 0.250000 -0.437500 -0.055813
v 0.250000 -0.437500 0.055813
v 0.187500 -0.312500 -0.039437
v 0.187500 -0.312500 0.039437
v 0.250000 -0.437500 -0.055813
v 0.187500 -0.312500 -0.039437
v -0.250000 -0.437500 -0.055813
v -0.187500 -0.312500 -0.039437
vt 1.000000 0.443262
vt 0.741935 0.110816
vt 1.000000 0.000000
vt 0.677419 0.332447
vt 0.290323 0.332447
vt 0.000000 0.443262
vt 0.225806 0.110816
vt 0.000000 0.000000
vt 0.417806 0.000000
vt 0.516129 0.443262
vt 0.549935 0.000000
vt 0.451613 0.443262
vt 1.000000 0.773050
vt 0.000000 0.773050
vt 1.000000 1.000000
vt 0.000000 1.000000
vt 0.516129 0.443262
vt 0.417806 0.000000
vt 0.549935 0.000000
vt 0.451613 0.443262
vt 1.000000 0.941933
vt 0.000000 0.831117
vt 1.000000 0.831117
vt 0.000000 0.941933
vt 0.524581 0.332447
vt 0.426258 0.110816
vt 0.541484 0.110816
vt 0.443161 0.332447
vt 0.225806 0.787566
vt 0.741935 0.985483
vt 0.225806 0.985483
vt 0.741935 0.787566
vt 0.677419 0.956450
vt 0.290323 0.816600
vt 0.290323 0.956450
vt 0.677419 0.816600
vt 0.541484 0.110816
vt 0.443161 0.332447
vt 0.524581 0.332447
vt 0.426258 0.110816
vt 1.000000 0.000000
vt 0.741935 0.110816
vt 1.000000 0.443262
vt 0.677419 0.332447
vt 0.225806 0.110816
vt 0.000000 0.443262
vt 0.290323 0.332447
vt 0.000000 0.000000
vn -0.0000 0.1299 0.9915
vn -1.0000 0.0000 0.0000
vn 0.0000 -1.0000 0.0000
vn 1.0000 0.0000 0.0000
vn 0.0000 1.0000 0.0000
vn 0.8944 -0.4472 0.0000
vn -0.8944 -0.4472 0.0000
vn 0.0000 0.1299 -0.9915
usemtl Body
s off
f 1/1/1 2/2/1 3/3/1
f 4/4/1 2/2/1 1/1/1
f 5/5/1 6/6/1 7/7/1
f 6/6/1 8/8/1 7/7/1
f 8/8/1 3/3/1 2/2/1
f 8/8/1 2/2/1 7/7/1
f 1/1/1 6/6/1 5/5/1
f 1/1/1 5/5/1 4/4/1
f 8/9/2 9/10/2 10/11/2
f 6/12/2 9/10/2 8/9/2
f 3/13/3 8/14/3 11/15/3
f 8/14/3 10/16/3 11/15/3
f 12/17/4 13/18/4 14/19/4
f 15/20/4 13/18/4 12/17/4
f 16/21/5 6/22/5 1/23/5
f 9/24/5 6/22/5 16/21/5
f 17/25/6 18/26/6 19/27/6
f 20/28/6 18/26/6 17/25/6
f 18/29/5 21/30/5 19/31/5
f 18/29/5 22/32/5 21/30/5
f 23/33/3 20/34/3 17/35/3
f 24/36/3 20/34/3 23/33/3
f 21/37/7 24/38/7 23/39/7
f 22/40/7 24/38/7 21/37/7
f 11/41/8 25/42/8 16/43/8
f 25/42/8 26/44/8 16/43/8
f 27/45/8 9/46/8 28/47/8
f 10/48/8 9/46/8 27/45/8
f 9/46/8 16/43/8 28/47/8
f 28/47/8 16/43/8 26/44/8
f 11/41/8 10/48/8 25/42/8
f 25/42/8 10/48/8 27/45/8
g node0_Body001
v -0.500000 -0.500000 0.062500
v -0.500000 -0.500000 -0.062500
v -0.468750 -0.500000 0.062500
v -0.468750 -0.500000 -0.062500
v -0.500000 -0.250000 -0.031250
v -0.468750 -0.250000 -0.031250
v -0.500000 -0.250000 0.031250
v -0.468750 -0.250000 0.031250
v -0.500000 -0.500000 0.062500
v -0.500000 -0.250000 -0.031250
v -0.500000 -0.500000 -0.062500
v -0.500000 -0.250000 0.031250
v -0.468750 -0.250000 -0.031250
v -0.468750 -0.500000 0.062500
v -0.468750 -0.500000 -0.062500
v -0.468750 -0.250000 0.031250
vt 0.000000 0.777778
vt 0.000000 1.000000
vt 0.055556 0.777778
vt 0.055556 1.000000
vt 0.000000 0.000000
vt 0.000000 0.444444
vt 0.055556 0.000000
vt 0.055556 0.444444
vt 0.000000 0.944444
vt 0.000000 0.833333
vt 0.055556 0.944444
vt 0.055556 0.833333
vt 0.000000 0.444444
vt 0.000000 0.000000
vt 0.055556 0.444444
vt 0.055556 0.000000
vt 0.777778 0.000000
vt 0.944444 0.444444
vt 1.000000 0.000000
vt 0.833333 0.444444
vt 0.944444 0.444444
vt 0.777778 0.000000
vt 1.000000 0.000000
vt 0.833333 0.444444
vn 0.0000 -1.0000 0.0000
vn 0.0000 0.1240 -0.9923
vn 0.0000 1.0000 0.0000
vn 0.0000 0.1240 0.9923
vn -1.0000 0.0000 0.0000
vn 1.0000 0.0000 0.0000
usemtl Body001
s off
f 29/49/9 30/50/9 31/51/9
f 31/51/9 30/50/9 32/52/9
f 30/53/10 33/54/10 32/55/10
f 32/55/10 33/54/10 34/56/10
f 33/57/11 35/58/11 34/59/11
f 34/59/11 35/58/11 36/60/11
f 35/61/12 29/62/12 36/63/12
f 36/63/12 29/62/12 31/64/12
f 37/65/13 38/66/13 39/67/13
f 37/65/13 40/68/13 38/66/13
f 41/69/14 42/70/14 43/71/14
f 44/72/14 42/70/14 41/69/14
